<svg width="1091" height="180" viewBox="0 0 1091 180" fill="none" xmlns="http://www.w3.org/2000/svg">
<path d="M44.0069 7.06093C78.1507 7.06123 111.796 7.0407 145.441 7.07485C155.172 7.08473 154.719 5.62814 154.657 16.6102C154.619 23.5041 154.259 30.3389 149.412 35.916C141.499 45.0204 131.325 49.411 119.565 47.3876C110.161 45.7693 101.041 42.3488 91.8925 39.4234C80.0485 35.6361 68.4889 30.7618 56.4423 27.8793C49.1844 26.1425 41.217 26.9452 33.6004 27.2975C29.2642 27.4981 27.8847 26.2329 28.2098 22.0862C28.4693 18.7753 28.4466 15.4152 28.217 12.1C27.9389 8.08568 29.6838 6.74493 33.5179 7.01616C36.8324 7.25064 40.1768 7.06233 44.0069 7.06093Z" fill="white"/>
<path d="M128.734 137.017C132.442 138.232 135.877 139.076 139 140.57C152.74 147.142 157.85 157.718 154.499 172.56C154.259 173.622 152.765 174.6 151.632 175.192C150.844 175.603 149.675 175.291 148.676 175.291C110.554 175.292 72.4324 175.205 34.3119 175.399C29.3914 175.424 27.6895 173.872 28.2171 169.14C28.492 166.673 28.3655 164.146 28.2408 161.655C28.054 157.926 29.5434 156.355 33.3275 157.235C49.8748 161.086 65.2993 157.387 80.2638 150.33C88.2311 146.572 96.1972 142.78 104.348 139.454C112.01 136.327 120.053 135.153 128.734 137.017Z" fill="white"/>
<path d="M37.9403 140.241C29.8469 137.609 28.3324 135.598 28.2643 127.548C28.2178 122.056 28.3185 116.563 28.2562 111.071C28.1967 105.819 30.4509 102.88 35.807 101.681C48.0311 98.9442 59.979 100.041 71.7535 103.652C82.7147 107.014 93.5039 110.936 104.463 114.304C119.41 118.897 134.277 118.696 148.929 112.799C153.673 110.89 154.599 111.492 154.651 116.433C154.726 123.422 154.72 130.414 154.612 137.402C154.593 138.623 154.075 140.741 153.477 140.857C152.259 141.095 150.572 140.594 149.525 139.804C132.475 126.944 113.562 126.271 93.9317 131.55C83.5186 134.35 73.5024 138.97 62.9647 140.85C55.0352 142.265 46.561 140.627 37.9403 140.241Z" fill="white"/>
<path d="M69.3163 74.7332C80.9294 77.8876 92.0198 81.7064 103.428 83.76C120.645 86.8592 137.63 85.7202 152.982 76.0252C156.343 81.8468 155.085 89.5902 150.325 93.2272C135.641 104.447 119.198 106.694 101.576 102.543C89.6007 99.723 77.7769 95.8375 65.6462 94.2226C55.3981 92.8584 44.7979 93.8469 34.3706 94.2433C29.0648 94.445 28.3142 94.2362 28.2647 88.7631C28.227 84.5996 28.232 80.4352 28.2636 76.2716C28.3085 70.3605 29.7204 68.2575 35.637 68.9706C46.8009 70.3162 57.8431 72.6717 69.3163 74.7332Z" fill="white"/>
<path d="M38.1559 33.8693C51.6575 33.6614 63.4293 38.181 74.9273 43.6486C84.0941 48.0076 93.0715 52.7922 102.375 56.8302C119.192 64.1289 135.854 65.3714 151.707 54.0105C152.208 53.6511 152.923 53.5896 153.528 53.3925C157.196 62.442 154.811 68.752 146.064 71.7218C129.054 77.497 112.196 75.6261 95.6868 69.5376C86.0114 65.9695 76.5618 61.7939 66.9594 58.0219C56.0042 53.7185 44.7986 50.7497 32.8488 52.4787C29.6422 52.9427 28.1269 51.5792 28.2452 48.3339C28.2998 46.8364 28.2516 45.3352 28.2517 43.8357C28.2529 34.702 28.6597 34.2726 38.1559 33.8693Z" fill="white"/>
<path d="M202.75 108.25L192.625 134H180.25L216.188 45.9375H229.75L265.125 134H252.938L242.875 108.25H202.75ZM222.812 54.9375C222.104 57.2708 221.25 59.875 220.25 62.75C219.292 65.5833 218.396 68.0833 217.562 70.25L206.375 98.9375H239.312L228 69.875C227.417 68.4167 226.646 66.3542 225.688 63.6875C224.729 61.0208 223.771 58.1042 222.812 54.9375ZM285.438 94.8125V134H274.25V80.8125C274.25 76.8542 274.208 73.6875 274.125 71.3125C274.083 68.8958 274 67.25 273.875 66.375H284.5C284.583 67.2917 284.667 68.4167 284.75 69.75C284.833 71.0833 284.896 72.4792 284.938 73.9375C284.979 75.3542 285 76.6875 285 77.9375H285.188C287.604 73.1458 290.375 69.8125 293.5 67.9375C296.625 66.0625 300.438 65.125 304.938 65.125C310.062 65.125 314.104 66.1458 317.062 68.1875C320.062 70.2292 322.146 73.4792 323.312 77.9375H323.5C325.833 73.3958 328.646 70.125 331.938 68.125C335.271 66.125 339.292 65.125 344 65.125C350.833 65.125 355.792 66.9792 358.875 70.6875C362 74.3958 363.562 80.4792 363.562 88.9375V134H352.438V91.125C352.438 84.5833 351.542 80.0625 349.75 77.5625C347.958 75.0625 344.729 73.8125 340.062 73.8125C335.146 73.8125 331.312 75.6458 328.562 79.3125C325.854 82.9375 324.5 88.1042 324.5 94.8125V134H313.375V91.125C313.375 84.5833 312.479 80.0625 310.688 77.5625C308.896 75.0625 305.667 73.8125 301 73.8125C296.208 73.8125 292.417 75.6458 289.625 79.3125C286.833 82.9792 285.438 88.1458 285.438 94.8125ZM437.812 99.875C437.812 111.667 435.729 120.521 431.562 126.438C427.438 132.312 421.229 135.25 412.938 135.25C407.812 135.25 403.542 134.333 400.125 132.5C396.75 130.625 394 127.625 391.875 123.5H391.75C391.75 124.333 391.708 125.542 391.625 127.125C391.542 128.708 391.458 130.188 391.375 131.562C391.292 132.896 391.208 133.708 391.125 134H380.25C380.375 132.875 380.458 131.167 380.5 128.875C380.583 126.542 380.625 123.604 380.625 120.062V41.25H391.875V67.6875C391.875 69.0208 391.854 70.5 391.812 72.125C391.771 73.7083 391.708 75.4167 391.625 77.25H391.875C393.958 72.9167 396.708 69.8125 400.125 67.9375C403.583 66.0625 407.854 65.125 412.938 65.125C421.479 65.125 427.75 68 431.75 73.75C435.792 79.5 437.812 88.2083 437.812 99.875ZM426 100.25C426 90.7917 424.75 84.0208 422.25 79.9375C419.75 75.8542 415.688 73.8125 410.062 73.8125C403.729 73.8125 399.104 75.9792 396.188 80.3125C393.312 84.6458 391.875 91.5208 391.875 100.938C391.875 109.812 393.292 116.375 396.125 120.625C398.958 124.833 403.562 126.938 409.938 126.938C415.604 126.938 419.688 124.854 422.188 120.688C424.729 116.479 426 109.667 426 100.25ZM463.375 98.75V134H452.125V82.125C452.125 79.75 452.083 77.25 452 74.625C451.958 72 451.875 69.25 451.75 66.375H462.375C462.458 68.2917 462.521 70.0208 462.562 71.5625C462.646 73.1042 462.708 74.4583 462.75 75.625C462.792 76.75 462.812 77.7083 462.812 78.5C462.854 79.25 462.875 79.8125 462.875 80.1875H463.125C464.375 76.1042 465.75 72.9375 467.25 70.6875C468.708 68.6042 470.375 67.1667 472.25 66.375C474.125 65.5417 476.438 65.125 479.188 65.125C480.729 65.125 482.25 65.3333 483.75 65.75V76.0625C482.333 75.6458 480.333 75.4375 477.75 75.4375C473.083 75.4375 469.521 77.4583 467.062 81.5C464.604 85.5 463.375 91.25 463.375 98.75ZM497.812 160.562C494.812 160.562 492.229 160.333 490.062 159.875V151.438C491.646 151.688 493.396 151.812 495.312 151.812C498.812 151.812 502.042 150.5 505 147.875C508 145.292 510.667 140.562 513 133.688L486.188 66.375H498.188L512.438 103.75C513.479 106.417 514.583 109.438 515.75 112.812C516.958 116.188 517.896 119.167 518.562 121.75C519.604 118.792 520.646 115.854 521.688 112.938C522.771 110.021 523.812 107.104 524.812 104.188L537.75 66.375H549.625L523.625 134C522.208 137.583 520.854 140.708 519.562 143.375C518.271 146.083 517.021 148.312 515.812 150.062C513.396 153.604 510.708 156.229 507.75 157.938C504.833 159.688 501.521 160.562 497.812 160.562ZM636.312 125.562C642.062 125.562 647.417 124.688 652.375 122.938C657.375 121.188 661.417 118.812 664.5 115.812V99.9375H638.188V89.9375H675.5V120.312C670.833 125.062 665.104 128.75 658.312 131.375C651.562 133.958 644.229 135.25 636.312 135.25C627.146 135.25 619.25 133.396 612.625 129.688C606 125.979 600.896 120.708 597.312 113.875C593.729 107 591.938 98.8958 591.938 89.5625C591.938 75.2708 595.771 64.2083 603.438 56.375C611.104 48.5417 621.875 44.625 635.75 44.625C645.5 44.625 653.417 46.2708 659.5 49.5625C665.583 52.8542 670.271 58.125 673.562 65.375L662.188 68.75C659.688 63.75 656.229 60.1042 651.812 57.8125C647.438 55.5208 641.979 54.375 635.438 54.375C625.271 54.375 617.5 57.4583 612.125 63.625C606.75 69.75 604.062 78.3958 604.062 89.5625C604.062 100.688 606.917 109.479 612.625 115.938C618.333 122.354 626.229 125.562 636.312 125.562ZM702.375 102.562C702.375 110.312 703.979 116.292 707.188 120.5C710.396 124.708 715.083 126.812 721.25 126.812C726.125 126.812 730.021 125.833 732.938 123.875C735.896 121.917 737.896 119.438 738.938 116.438L748.812 119.25C744.771 129.917 735.583 135.25 721.25 135.25C711.25 135.25 703.625 132.271 698.375 126.312C693.167 120.354 690.562 111.5 690.562 99.75C690.562 88.5833 693.167 80.0208 698.375 74.0625C703.625 68.1042 711.104 65.125 720.812 65.125C730.771 65.125 738.229 68.125 743.188 74.125C748.146 80.125 750.625 89.1042 750.625 101.062V102.562H702.375ZM739 93.9375C738.375 86.8125 736.562 81.625 733.562 78.375C730.562 75.0833 726.25 73.4375 720.625 73.4375C715.167 73.4375 710.833 75.2708 707.625 78.9375C704.458 82.5625 702.75 87.5625 702.5 93.9375H739ZM776.5 94.8125V134H765.25V80.8125C765.25 76.8542 765.208 73.6875 765.125 71.3125C765.083 68.8958 765 67.25 764.875 66.375H775.5C775.583 67.1667 775.646 68.1667 775.688 69.375C775.771 70.5833 775.833 71.9167 775.875 73.375C775.917 74.8333 775.958 76.3542 776 77.9375H776.188C778.771 73.2708 781.75 69.9792 785.125 68.0625C788.542 66.1042 792.771 65.125 797.812 65.125C805.229 65.125 810.646 67.0208 814.062 70.8125C817.521 74.6042 819.25 80.6458 819.25 88.9375V134H807.938V91.125C807.938 84.6667 806.896 80.1667 804.812 77.625C802.729 75.0833 799.125 73.8125 794 73.8125C788.583 73.8125 784.312 75.6667 781.188 79.375C778.062 83.0833 776.5 88.2292 776.5 94.8125ZM844.875 102.562C844.875 110.312 846.479 116.292 849.688 120.5C852.896 124.708 857.583 126.812 863.75 126.812C868.625 126.812 872.521 125.833 875.438 123.875C878.396 121.917 880.396 119.438 881.438 116.438L891.312 119.25C887.271 129.917 878.083 135.25 863.75 135.25C853.75 135.25 846.125 132.271 840.875 126.312C835.667 120.354 833.062 111.5 833.062 99.75C833.062 88.5833 835.667 80.0208 840.875 74.0625C846.125 68.1042 853.604 65.125 863.312 65.125C873.271 65.125 880.729 68.125 885.688 74.125C890.646 80.125 893.125 89.1042 893.125 101.062V102.562H844.875ZM881.5 93.9375C880.875 86.8125 879.062 81.625 876.062 78.375C873.062 75.0833 868.75 73.4375 863.125 73.4375C857.667 73.4375 853.333 75.2708 850.125 78.9375C846.958 82.5625 845.25 87.5625 845 93.9375H881.5ZM933.5 133.5C929.833 134.5 926.042 135 922.125 135C917.625 135 914.25 133.729 912 131.188C909.75 128.604 908.625 124.771 908.625 119.688V74.5625H900.812V66.375H909.062L912.375 51.25H919.875V66.375H932.375V74.5625H919.875V117.25C919.875 120.5 920.396 122.792 921.438 124.125C922.521 125.417 924.375 126.062 927 126.062C928.417 126.062 930.583 125.771 933.5 125.188V133.5ZM954.312 41.25V52H943.062V41.25H954.312ZM954.312 66.375V134H943.062V66.375H954.312ZM997.562 135.25C988.104 135.25 980.875 132.271 975.875 126.312C970.917 120.312 968.438 111.583 968.438 100.125C968.438 88.75 970.938 80.0833 975.938 74.125C980.938 68.125 988.104 65.125 997.438 65.125C1004.35 65.125 1010.08 66.9167 1014.62 70.5C1019.21 74.0833 1022.08 79.0208 1023.25 85.3125L1011.69 86.1875C1011.1 82.4375 1009.62 79.4583 1007.25 77.25C1004.88 75.0417 1001.5 73.9375 997.125 73.9375C991.167 73.9375 986.854 75.9167 984.188 79.875C981.521 83.8333 980.188 90.5 980.188 99.875C980.188 108.875 981.604 115.542 984.438 119.875C987.271 124.208 991.542 126.375 997.25 126.375C1001.25 126.375 1004.58 125.292 1007.25 123.125C1009.96 120.958 1011.62 117.625 1012.25 113.125L1023.62 113.875C1023.04 118.208 1021.58 121.979 1019.25 125.188C1016.96 128.396 1013.96 130.875 1010.25 132.625C1006.58 134.375 1002.35 135.25 997.562 135.25ZM1086.38 115.312C1086.38 121.688 1083.96 126.604 1079.12 130.062C1074.33 133.521 1067.6 135.25 1058.94 135.25C1050.52 135.25 1044.02 133.875 1039.44 131.125C1034.9 128.333 1031.94 124 1030.56 118.125L1040.5 116.188C1041.46 119.812 1043.44 122.479 1046.44 124.188C1049.44 125.854 1053.6 126.688 1058.94 126.688C1064.65 126.688 1068.81 125.812 1071.44 124.062C1074.1 122.312 1075.44 119.688 1075.44 116.188C1075.44 113.521 1074.52 111.354 1072.69 109.688C1070.85 108.021 1067.9 106.646 1063.81 105.562C1058.98 104.271 1055.12 103.208 1052.25 102.375C1049.42 101.542 1047.23 100.833 1045.69 100.25C1044.15 99.625 1042.92 99.0417 1042 98.5C1039.25 96.9167 1037.1 94.9792 1035.56 92.6875C1034.02 90.3958 1033.25 87.5833 1033.25 84.25C1033.25 78.0833 1035.44 73.3958 1039.81 70.1875C1044.23 66.9375 1050.65 65.3125 1059.06 65.3125C1066.52 65.3125 1072.44 66.625 1076.81 69.25C1081.23 71.875 1084.02 76.0833 1085.19 81.875L1075.06 83.125C1074.44 80.125 1072.75 77.8333 1070 76.25C1067.29 74.625 1063.65 73.8125 1059.06 73.8125C1053.98 73.8125 1050.23 74.5833 1047.81 76.125C1045.4 77.6667 1044.19 80 1044.19 83.125C1044.19 85.4167 1044.88 87.3125 1046.25 88.8125C1047.62 90.2708 1050.25 91.4792 1054.12 92.4375C1059.33 93.6875 1064.29 95.0625 1069 96.5625C1073.71 98.0208 1077.08 99.4792 1079.12 100.938C1081.5 102.646 1083.29 104.667 1084.5 107C1085.75 109.292 1086.38 112.062 1086.38 115.312Z" fill="white"/>
</svg>
