<svg width="2500" height="631" viewBox="0 0 2500 631" fill="none" xmlns="http://www.w3.org/2000/svg">
<path d="M408.895 174.856H43.3115L0 218.334L0.0224555 409.017C0.0224555 520.072 84.6828 611.99 194.724 625.693L235.98 583.636H223.363C124.665 583.636 44.7034 505.188 44.7034 409.017V218.334H89.4805L89.3619 409.017C89.3619 481.087 149.334 539.686 223.363 539.686H279.455L322.58 496.208H223.363C174.025 496.208 134.235 456.985 134.235 409.017V218.334H178.538L178.608 409.017C178.727 432.884 198.669 452.496 223.363 452.496H365.677L408.754 409.017H223.363V218.334H408.895V627.345H453.673L453.65 218.331C453.506 194.23 433.564 174.856 408.895 174.856ZM632.236 627.345L632.21 218.331C632.21 98.0595 532.214 0 408.895 0H216.012L172.82 43.7124H408.895C507.5 43.7124 587.481 122.161 587.481 218.331V627.345H632.236ZM408.895 87.6621L129.623 87.4248L86.4338 130.903L408.895 131.14C458.188 131.14 498.001 170.363 498.001 218.331V627.345H542.707L542.848 218.331C542.848 146.262 482.854 87.6621 408.895 87.6621ZM1898.17 547.483L1937.4 459.82L1976.62 547.483H1898.17ZM1951.81 422.721L1950.63 420.361H1924.88L1923.93 422.721L1833.53 622.15L1831.07 627.586H1862.49L1863.44 625.459L1885.89 575.365H1988.67L2010.88 625.459L2012.07 627.586H2044.44L2042.07 622.15L1951.81 422.721ZM1187.51 421.778H1183.71V450.132H1250.22V627.586H1280.61V450.132H1347.1V421.778H1343.27H1187.51ZM1362.39 124.527H1425.69C1468.6 124.527 1493.22 144.139 1493.22 178.4V179.109C1493.22 212.19 1466.12 233.693 1424.18 233.693H1362.39V124.527ZM1531.24 177.925V177.22C1531.24 123.819 1490.7 89.0829 1427.98 89.0829H1324.72V362.47H1362.39V268.663H1423.05C1476.89 268.663 1531.24 240.54 1531.24 177.925ZM1776.89 421.778H1773.04V627.586H1803.09V421.778H1799.22H1776.89ZM1407.66 599.7V538.028H1515.79V509.909H1407.66V449.898H1528.5V421.781H1377.63V627.589H1529.92V599.703H1526.11L1407.66 599.7ZM1597.59 522.907V450.129H1654.91C1684.69 450.129 1701.74 463.124 1701.74 485.336V486.045C1701.74 508.494 1683.27 522.907 1654.63 522.907H1597.59ZM1680.97 545.116C1712.97 537.319 1732.06 515.345 1732.06 485.099V484.627C1732.06 468.085 1726.22 453.435 1715.64 442.804C1702.14 429.334 1681.16 421.775 1656.59 421.775H1567.58V627.582H1597.59V550.549H1648.44L1704.77 626.165L1705.93 627.582H1742.98L1738.35 621.438L1680.97 545.116ZM1726.32 362.467V327.022H1606.24V89.0829H1568.6V362.47H1722.51L1726.32 362.467ZM1069.46 547.479L1108.8 459.817L1147.91 547.479H1069.46ZM1123.1 422.718L1122.06 420.357H1096.16L1095.14 422.718L1004.83 622.146L1002.4 627.582H1033.71L1034.75 625.456L1057.22 575.362H1160.12L1182.31 625.456L1183.33 627.582H1215.82L1213.36 622.146L1123.1 422.718ZM2151 124.524H2209.37C2271.98 124.524 2315.69 166.11 2315.69 225.89V226.599C2315.69 285.673 2271.98 327.022 2209.36 327.022H2151L2151 124.524ZM2209.37 362.467C2293.48 362.467 2354.44 305.047 2354.44 225.89V224.954C2354.44 146.268 2293.48 89.0861 2209.36 89.0861H2113.43V362.473H2117.21L2209.37 362.467ZM2288.52 510.146C2245.52 500.932 2237.72 491.243 2237.72 475.413V474.939C2237.72 458.4 2253.55 446.822 2276 446.822C2296.08 446.822 2313.57 453.435 2330.81 467.38L2333.89 469.977L2336.25 466.905L2349.24 449.42L2351.61 446.585L2348.54 444.221C2326.56 426.499 2305.06 418.94 2276.7 418.94C2236.77 418.94 2207.71 443.513 2207.71 476.828V477.54C2207.71 515.582 2235.35 529.286 2277.18 538.5C2318.06 547.008 2325.62 556.693 2325.62 572.289V572.764C2325.62 590.72 2309.55 602.773 2285.45 602.773C2260.17 602.773 2241.26 594.973 2220 575.599L2217.16 573.001L2214.56 576.07L2200.62 592.609L2198.26 595.207L2201.09 597.808C2225.9 620.02 2252.6 630.418 2284.5 630.418C2326.56 630.418 2356.1 605.842 2356.1 570.638V569.926C2356.1 538.5 2335.77 520.543 2288.52 510.146ZM1806.66 362.467V89.0829H1769.02V362.47H1802.88L1806.66 362.467ZM1117.38 124.527H1180.73C1223.64 124.527 1248.24 144.139 1248.24 178.4V179.109C1248.24 212.19 1221.16 233.693 1179.19 233.693H1117.39L1117.38 124.527ZM1113.58 362.47H1117.38V268.663H1178.09C1231.93 268.663 1286.26 240.543 1286.26 177.928V177.22C1286.26 123.819 1245.73 89.0829 1183 89.0829H1079.77V362.47H1083.59H1113.58ZM903.375 135.396L957.818 257.557H848.556L903.375 135.396ZM801.868 362.47L802.884 360.106L833.342 292.293H972.962L1003.07 360.106L1004.08 362.47H1044.75L1042.29 357.034L921.264 89.5575L920.269 87.1939H887.237L886.223 89.5575L765.147 357.034L762.69 362.47H799.385H801.868ZM2101.38 599.466V421.778H2071.61V627.586H2179.59V599.466H2175.81H2101.38ZM948.886 421.778H946.83L945.718 423.67L876.701 526.925L807.727 423.667L806.569 421.775H778.049V627.589H807.515V476.128L872.705 571.587L873.815 573.242H879.014L880.149 571.587L945.342 475.888V627.589H975.373V421.781H971.544L948.886 421.778ZM1903.13 327.5V242.198H2048.22V207.225H1903.13V124.056H2065.23V89.0829H1865.56V362.47H2067.12V327.5H2063.34H1903.13ZM2454.4 580.329C2461.48 580.329 2466.21 577.254 2466.21 571.584V571.346C2466.21 566.151 2461.96 562.841 2454.87 562.841H2440.45V580.326L2454.4 580.329ZM2433.13 556.225H2455.1C2461.49 556.225 2466.45 558.351 2469.75 561.424C2472.12 563.787 2473.77 567.094 2473.77 570.875V571.346C2473.77 579.146 2468.34 583.87 2461.01 585.762L2476.37 605.373H2467.16L2452.98 586.942H2440.45V605.373H2433.13L2433.13 556.225ZM2495.75 582.218V581.981C2495.75 558.117 2476.84 538.503 2452.03 538.503C2427.22 538.503 2408.32 558.355 2408.32 582.215V582.453C2408.32 606.554 2426.99 626.165 2451.8 626.165C2476.84 626.165 2495.75 606.32 2495.75 582.218ZM2404.07 582.453V582.218C2404.07 556.225 2425.1 534.25 2452.03 534.25C2478.97 534.25 2500 555.754 2500 581.981V582.218C2500 608.446 2478.74 630.183 2451.8 630.183C2424.86 630.183 2404.07 608.68 2404.07 582.453Z" fill="white"/>
</svg>
