<svg width="239" height="48" viewBox="0 0 239 48" fill="none" xmlns="http://www.w3.org/2000/svg">
<path d="M19.27 38.18C27.87 38.18 32.51 33.16 34.8 28.62L26.9 24.88C26.2563 26.3824 25.1956 27.6689 23.8433 28.5869C22.491 29.505 20.9039 30.0162 19.27 30.06C13.45 30.06 9.34 25.58 9.34 19.76C9.34 13.88 13.45 9.46001 19.27 9.46001C20.9028 9.50296 22.4891 10.0127 23.8413 10.9289C25.1934 11.8451 26.2549 13.1295 26.9 14.63L34.8 10.83C32.5 6.19002 27.86 1.33002 19.27 1.33002C8.33 1.33002 0 8.76001 0 19.76C0 30.7 8.33 38.18 19.27 38.18ZM46.16 37.53V1.93002H37.94V37.53H46.16ZM74.92 37.53V21.41C74.92 13.41 69.11 11.11 62.92 11.11C58.96 11.11 54.53 12.28 51.22 15.11L54.27 20.82C56.2699 19.0792 58.819 18.0985 61.47 18.05C64.78 18.05 66.7 19.6 66.7 21.84V24.4C65.16 22.48 62.11 21.36 58.7 21.36C54.75 21.36 49.84 23.44 49.84 29.69C49.84 35.45 54.74 38.18 58.7 38.18C62 38.18 65.1 36.89 66.7 34.98V37.53H74.92ZM62.12 32.78C59.98 32.78 58 31.82 58 29.79C58 27.76 59.98 26.8 62.11 26.8C63.93 26.8 65.85 27.39 66.71 28.62V30.92C65.85 32.14 63.93 32.78 62.11 32.78H62.12ZM90.2 38.18C97.56 38.18 101.89 34.65 101.89 29.74C101.89 19.17 86.94 22.1 86.94 19.27C86.94 18.26 88.22 17.51 90.14 17.51C93.24 17.51 96.17 18.85 97.72 20.34L100.87 14.52C97.7352 12.2569 93.956 11.0615 90.09 11.11C82.99 11.11 79.04 15.06 79.04 19.6C79.04 30.06 94.04 26.75 94.04 29.95C94.04 31.07 93.03 31.77 90.57 31.77C87.53 31.77 83.42 30.01 81.5 28.3L78.08 34.17C80.8 36.63 85.55 38.17 90.2 38.17V38.18ZM115.43 38.18C122.79 38.18 127.12 34.65 127.12 29.74C127.12 19.17 112.17 22.1 112.17 19.27C112.17 18.26 113.45 17.51 115.37 17.51C118.47 17.51 121.41 18.85 122.95 20.34L126.1 14.52C122.965 12.2569 119.186 11.0615 115.32 11.11C108.22 11.11 104.27 15.06 104.27 19.6C104.27 30.06 119.27 26.75 119.27 29.95C119.27 31.07 118.26 31.77 115.8 31.77C112.76 31.77 108.65 30.01 106.73 28.3L103.31 34.17C106.03 36.63 110.78 38.17 115.43 38.17V38.18ZM145.94 37.53C157.1 37.53 165.16 30.75 165.16 19.7C165.16 8.65002 157.1 1.92001 145.89 1.92001H130.95V37.53H145.95H145.94ZM145.89 29.53H140.13V9.93002H145.94C152.46 9.93002 155.77 14.2 155.77 19.7C155.77 24.99 152.14 29.53 145.89 29.53ZM181.22 38.18C190.08 38.18 195.32 31.88 195.32 24.61C195.32 17.35 190.08 11.11 181.22 11.11C172.47 11.11 167.24 17.35 167.24 24.61C167.24 31.88 172.47 38.18 181.22 38.18ZM181.22 30.91C177.7 30.91 175.67 28.08 175.67 24.61C175.67 21.2 177.7 18.37 181.22 18.37C184.85 18.37 186.88 21.2 186.88 24.61C186.88 28.08 184.85 30.91 181.22 30.91Z" fill="white"/>
<path d="M203.13 9.44998C204.383 9.44998 205.585 8.95216 206.471 8.06605C207.357 7.17994 207.855 5.97812 207.855 4.72497C207.855 3.47183 207.357 2.27 206.471 1.38389C205.585 0.497784 204.383 -2.50759e-05 203.13 -2.50759e-05C202.512 -0.00401011 201.899 0.114837 201.327 0.349622C200.755 0.584408 200.235 0.930458 199.798 1.36769C199.36 1.80492 199.014 2.32463 198.78 2.89666C198.545 3.46869 198.426 4.08165 198.43 4.69998C198.426 5.32066 198.545 5.93602 198.779 6.51084C199.013 7.08566 199.358 7.60864 199.795 8.04986C200.231 8.49107 200.751 8.84184 201.323 9.08209C201.895 9.32235 202.509 9.44736 203.13 9.44998ZM197.26 48C204.15 48 207.24 43.57 207.24 37.32V11.75H199.02V37.32C199.02 40.1 197.8 41.38 195.87 41.38C194.32 41.38 193.57 41.06 192.57 40.2L190.48 46.18C192.46 47.47 193.74 48 197.26 48ZM224.9 38.18C233.77 38.18 239 31.88 239 24.61C239 17.35 233.77 11.11 224.9 11.11C216.15 11.11 210.92 17.35 210.92 24.61C210.92 31.88 216.15 38.18 224.91 38.18H224.9ZM224.9 30.91C221.39 30.91 219.36 28.08 219.36 24.61C219.36 21.2 221.38 18.37 224.91 18.37C228.54 18.37 230.57 21.2 230.57 24.61C230.57 28.08 228.54 30.91 224.91 30.91H224.9Z" fill="white"/>
</svg>
