<svg xmlns="http://www.w3.org/2000/svg" viewBox="0 0 400 400"><defs><style>.cls-1{fill:none;}.cls-1,.cls-2{stroke:#3c3c42;stroke-linecap:round;stroke-linejoin:round;}.cls-2{fill:#3c3c42;}</style></defs><title>101-150</title><g id="_135" data-name="135"><polygon class="cls-1" points="257.21 317.44 301.2 350.1 98.8 350.1 98.8 317.44 257.21 317.44"/><rect class="cls-2" x="98.8" y="287.94" width="158.41" height="29.5"/><rect class="cls-2" x="98.8" y="350.1" width="202.4" height="29.5"/><path class="cls-1" d="M257.2,287.94V99.61A79.28,79.28,0,0,0,156,23.49"/><path class="cls-1" d="M156,23.49a78.23,78.23,0,0,1,20.73-1.62c40.69,2.2,73.14,36.18,73.14,77.74V282.5"/><path class="cls-1" d="M156,23.49a76.72,76.72,0,0,1,19.46-.14c37.64,4.39,67.07,36.88,67.07,76.25V277.06"/><path class="cls-1" d="M156,23.49a76.76,76.76,0,0,1,18.19,1.33c34.59,6.59,61,37.6,61,74.78v172"/><path class="cls-1" d="M156,23.49a77.48,77.48,0,0,1,16.92,2.8c31.54,8.79,55,38.32,55,73.31V266.17"/><path class="cls-1" d="M156,23.49a78.26,78.26,0,0,1,15.66,4.27A77,77,0,0,1,220.54,99.6V260.73"/><path class="cls-1" d="M156,23.49A79.25,79.25,0,0,1,213.21,99.6V255.29"/><polygon class="cls-1" points="213 255.29 257.21 287.94 98.8 287.94 98.8 255.29 213 255.29"/><polygon class="cls-2" points="156 23.5 156 23.5 156 23.5 156 23.5"/><path class="cls-2" d="M213.2,255.28V99.61A79.24,79.24,0,0,0,156,23.5,79.23,79.23,0,0,0,98.8,99.61V255.28H213"/><path class="cls-1" d="M178,20.4a79,79,0,0,0-22,3.1,79.23,79.23,0,0,1,57.2,76.11V255.29l44,32.65V99.61A79.21,79.21,0,0,0,178,20.4Z"/><path class="cls-1" d="M178,20.4a79,79,0,0,0-22,3.1,79.23,79.23,0,0,1,57.2,76.11V255.29l44,32.65V99.61A79.21,79.21,0,0,0,178,20.4Z"/><line class="cls-1" x1="220.54" y1="260.73" x2="98.8" y2="260.73"/><line class="cls-1" x1="227.87" y1="266.17" x2="98.8" y2="266.17"/><line class="cls-1" x1="235.2" y1="271.61" x2="98.8" y2="271.61"/><line class="cls-1" x1="242.53" y1="277.06" x2="98.8" y2="277.06"/><line class="cls-1" x1="249.87" y1="282.5" x2="98.8" y2="282.5"/></g></svg>