<svg xmlns="http://www.w3.org/2000/svg" viewBox="0 0 400 400"><defs><style>.cls-1,.cls-3{fill:none;stroke-linecap:round;}.cls-1,.cls-2,.cls-3{stroke:#3c3c42;}.cls-1{stroke-linejoin:round;}.cls-2{fill:#3c3c42;stroke-width:0.75px;}.cls-2,.cls-3{stroke-miterlimit:10;}</style></defs><title>01-50</title><g id="Capa_3" data-name="Capa 3"><path class="cls-1" d="M201.8,76.41C70,76.41,20.4,200,20.4,200S70,323.59,201.8,323.59,379.6,200,379.6,200,333.58,76.41,201.8,76.41Z"/><path class="cls-2" d="M200,120.17A79.83,79.83,0,1,0,279.83,200,79.83,79.83,0,0,0,200,120.17Z"/><path class="cls-1" d="M20.4,200S70,76.41,201.8,76.41,379.6,200,379.6,200"/><path class="cls-3" d="M379.6,200S332,81.88,201.8,81.88C71.24,81.88,20.4,200,20.4,200"/><path class="cls-3" d="M379.6,200S330.44,87.35,201.8,87.35C72.46,87.35,20.4,200,20.4,200"/><path class="cls-3" d="M379.6,200S328.87,92.82,201.8,92.82C73.68,92.82,20.4,200,20.4,200"/><path class="cls-3" d="M379.6,200S327.3,98.29,201.8,98.29C74.9,98.29,20.4,200,20.4,200"/><path class="cls-3" d="M379.6,200s-53.86-96.24-177.8-96.24C76.12,103.76,20.4,200,20.4,200"/><path class="cls-3" d="M379.6,200s-55.43-90.77-177.8-90.77C77.34,109.23,20.4,200,20.4,200"/><path class="cls-3" d="M379.6,200s-57-85.3-177.8-85.3C78.56,114.7,20.4,200,20.4,200"/><path class="cls-3" d="M379.6,200S321,120.17,201.8,120.17C79.78,120.17,20.4,200,20.4,200"/><path class="cls-1" d="M20.4,200S70,323.59,201.8,323.59,379.6,200,379.6,200"/><path class="cls-1" d="M379.6,200S332,318.12,201.8,318.12C71.24,318.12,20.4,200,20.4,200"/><path class="cls-1" d="M379.6,200S330.44,312.65,201.8,312.65C72.46,312.65,20.4,200,20.4,200"/><path class="cls-1" d="M379.6,200S328.87,307.18,201.8,307.18C73.68,307.18,20.4,200,20.4,200"/><path class="cls-1" d="M379.6,200S327.3,301.71,201.8,301.71C74.9,301.71,20.4,200,20.4,200"/><path class="cls-1" d="M379.6,200s-53.86,96.24-177.8,96.24C76.12,296.24,20.4,200,20.4,200"/><path class="cls-1" d="M379.6,200s-55.43,90.77-177.8,90.77C77.34,290.77,20.4,200,20.4,200"/><path class="cls-1" d="M379.6,200s-57,85.3-177.8,85.3C78.56,285.3,20.4,200,20.4,200"/><path class="cls-1" d="M379.6,200S321,279.83,201.8,279.83C79.78,279.83,20.4,200,20.4,200"/></g></svg>