<svg xmlns="http://www.w3.org/2000/svg" viewBox="0 0 400 400"><defs><style>.cls-1,.cls-2,.cls-3,.cls-4{fill:none;stroke:#3c3c42;stroke-linecap:round;}.cls-1,.cls-3{stroke-linejoin:round;}.cls-1,.cls-2{stroke-width:0.75px;}.cls-2,.cls-4{stroke-miterlimit:10;}</style></defs><title>01-50</title><g id="Capa_4" data-name="Capa 4"><path class="cls-1" d="M20.4,200S70,76.41,201.8,76.41,379.6,200,379.6,200"/><path class="cls-2" d="M379.6,200S332,84.13,201.8,84.13C71.24,84.13,20.4,200,20.4,200"/><path class="cls-2" d="M379.6,200S330.44,91.85,201.8,91.85C72.46,91.85,20.4,200,20.4,200"/><path class="cls-2" d="M379.6,200S328.87,99.58,201.8,99.58C73.68,99.58,20.4,200,20.4,200"/><path class="cls-2" d="M379.6,200s-52.3-92.7-177.8-92.7C74.9,107.3,20.4,200,20.4,200"/><path class="cls-2" d="M379.6,200s-53.86-85-177.8-85C76.12,115,20.4,200,20.4,200"/><path class="cls-2" d="M379.6,200s-55.43-77.25-177.8-77.25C77.34,122.75,20.4,200,20.4,200"/><path class="cls-2" d="M379.6,200s-57-69.52-177.8-69.52C78.56,130.48,20.4,200,20.4,200"/><path class="cls-2" d="M379.6,200S321,138.2,201.8,138.2c-122,0-181.4,61.8-181.4,61.8"/><path class="cls-3" d="M20.4,200S70,76.41,201.8,76.41,379.6,200,379.6,200"/><path class="cls-4" d="M379.6,200S332,84.13,201.8,84.13C71.24,84.13,20.4,200,20.4,200"/><path class="cls-4" d="M379.6,200S330.44,91.85,201.8,91.85C72.46,91.85,20.4,200,20.4,200"/><path class="cls-4" d="M379.6,200S328.87,99.58,201.8,99.58C73.68,99.58,20.4,200,20.4,200"/><path class="cls-4" d="M379.6,200s-52.3-92.7-177.8-92.7C74.9,107.3,20.4,200,20.4,200"/><path class="cls-4" d="M379.6,200s-53.86-85-177.8-85C76.12,115,20.4,200,20.4,200"/><path class="cls-4" d="M379.6,200s-55.43-77.25-177.8-77.25C77.34,122.75,20.4,200,20.4,200"/><path class="cls-4" d="M379.6,200s-57-69.52-177.8-69.52C78.56,130.48,20.4,200,20.4,200"/><path class="cls-4" d="M379.6,200S321,138.2,201.8,138.2c-122,0-181.4,61.8-181.4,61.8"/><path class="cls-3" d="M20.4,200S70,323.59,201.8,323.59,379.6,200,379.6,200"/><path class="cls-4" d="M379.6,200S332,315.87,201.8,315.87C71.24,315.87,20.4,200,20.4,200"/><path class="cls-4" d="M379.6,200S330.44,308.15,201.8,308.15C72.46,308.15,20.4,200,20.4,200"/><path class="cls-4" d="M379.6,200S328.87,300.42,201.8,300.42C73.68,300.42,20.4,200,20.4,200"/><path class="cls-4" d="M379.6,200s-52.3,92.7-177.8,92.7C74.9,292.7,20.4,200,20.4,200"/><path class="cls-4" d="M379.6,200s-53.86,85-177.8,85C76.12,285,20.4,200,20.4,200"/><path class="cls-4" d="M379.6,200s-55.43,77.25-177.8,77.25C77.34,277.25,20.4,200,20.4,200"/><path class="cls-4" d="M379.6,200s-57,69.52-177.8,69.52C78.56,269.52,20.4,200,20.4,200"/><path class="cls-4" d="M379.6,200S321,261.8,201.8,261.8c-122,0-181.4-61.8-181.4-61.8"/></g></svg>