<svg xmlns="http://www.w3.org/2000/svg" viewBox="0 0 400 400"><defs><style>.cls-1,.cls-10,.cls-11,.cls-12,.cls-13,.cls-14,.cls-15,.cls-16,.cls-17,.cls-18,.cls-19,.cls-2,.cls-20,.cls-21,.cls-22,.cls-3,.cls-4,.cls-5,.cls-6,.cls-7,.cls-8,.cls-9{fill:none;stroke:#fff;stroke-linecap:round;stroke-miterlimit:10;}.cls-1{stroke-width:0.75px;}.cls-2{stroke-width:0.76px;}.cls-3{stroke-width:0.77px;}.cls-4{stroke-width:0.79px;}.cls-5{stroke-width:0.8px;}.cls-6{stroke-width:0.81px;}.cls-7{stroke-width:0.82px;}.cls-8{stroke-width:0.83px;}.cls-9{stroke-width:0.85px;}.cls-10{stroke-width:0.86px;}.cls-11{stroke-width:0.87px;}.cls-12{stroke-width:0.88px;}.cls-13{stroke-width:0.89px;}.cls-14{stroke-width:0.9px;}.cls-15{stroke-width:0.92px;}.cls-16{stroke-width:0.93px;}.cls-17{stroke-width:0.94px;}.cls-18{stroke-width:0.95px;}.cls-19{stroke-width:0.96px;}.cls-20{stroke-width:0.98px;}.cls-21{stroke-width:0.99px;}</style></defs><title>01-50</title><g id="Capa_30" data-name="Capa 30"><ellipse class="cls-1" cx="200" cy="289.84" rx="59.14" ry="25.27"/><ellipse class="cls-2" cx="200" cy="284.73" rx="64.87" ry="28.71"/><ellipse class="cls-3" cx="200" cy="279.62" rx="70.61" ry="32.16"/><ellipse class="cls-4" cx="200" cy="274.51" rx="76.35" ry="35.6"/><ellipse class="cls-5" cx="200" cy="269.39" rx="82.08" ry="39.05"/><ellipse class="cls-6" cx="200" cy="264.28" rx="87.82" ry="42.49"/><ellipse class="cls-7" cx="200" cy="259.17" rx="93.56" ry="45.93"/><ellipse class="cls-8" cx="200" cy="254.06" rx="99.29" ry="49.38"/><ellipse class="cls-9" cx="200" cy="248.95" rx="105.03" ry="52.82"/><ellipse class="cls-10" cx="200" cy="243.83" rx="110.76" ry="56.27"/><ellipse class="cls-11" cx="200" cy="238.72" rx="116.5" ry="59.71"/><ellipse class="cls-12" cx="200" cy="233.61" rx="122.24" ry="63.16"/><ellipse class="cls-13" cx="200" cy="228.5" rx="127.97" ry="66.6"/><ellipse class="cls-14" cx="200" cy="223.38" rx="133.71" ry="70.04"/><ellipse class="cls-15" cx="200" cy="218.27" rx="139.44" ry="73.49"/><ellipse class="cls-16" cx="200" cy="213.16" rx="145.18" ry="76.93"/><ellipse class="cls-17" cx="200" cy="208.05" rx="150.92" ry="80.38"/><ellipse class="cls-18" cx="200" cy="202.93" rx="156.65" ry="83.82"/><ellipse class="cls-19" cx="200" cy="197.82" rx="162.39" ry="87.27"/><ellipse class="cls-20" cx="200" cy="192.71" rx="168.13" ry="90.71"/><ellipse class="cls-21" cx="200" cy="187.6" rx="173.86" ry="94.15"/><ellipse class="cls-22" cx="200" cy="182.49" rx="179.6" ry="97.6"/></g></svg>