<svg width="113" height="18" viewBox="0 0 113 18" fill="none" xmlns="http://www.w3.org/2000/svg">
<g clip-path="url(#clip0_16_194)">
<path d="M12.1529 17.2444C14.1308 17.2444 15.7342 15.6084 15.7342 13.5903C15.7342 11.5722 14.1308 9.93616 12.1529 9.93616C10.175 9.93616 8.57166 11.5722 8.57166 13.5903C8.57166 15.6084 10.175 17.2444 12.1529 17.2444Z" fill="#FCFCFC"/>
<path d="M5.52625 2.97101V1.55008C5.52625 1.48198 5.49974 1.41668 5.45255 1.36853C5.40536 1.32038 5.34136 1.29333 5.27463 1.29333H0.446107C0.37975 1.29392 0.316305 1.32123 0.269585 1.36931C0.222865 1.4174 0.196653 1.48237 0.196655 1.55008V13.119C0.19732 11.1104 0.684159 9.13319 1.61392 7.36285C2.54369 5.59251 3.88759 4.08389 5.52625 2.97101Z" fill="#FCFCFC"/>
<path d="M0.196655 13.1189V16.9899C0.196653 17.0576 0.222865 17.1226 0.269585 17.1707C0.316305 17.2188 0.37975 17.2461 0.446107 17.2467H5.27463C5.34136 17.2467 5.40536 17.2196 5.45255 17.1715C5.49974 17.1233 5.52625 17.058 5.52625 16.9899V2.97095C3.88759 4.08383 2.54369 5.59245 1.61392 7.36279C0.684159 9.13313 0.19732 11.1104 0.196655 13.1189Z" fill="#FCFCFC"/>
<path d="M5.52612 2.97093V13.1189C5.52771 11.369 6.19347 9.68772 7.38371 8.42787C8.57395 7.16802 10.1961 6.4275 11.9099 6.3617C11.975 6.35943 12.0367 6.33176 12.0823 6.28439C12.1279 6.23702 12.154 6.17357 12.155 6.10717V1.17817C12.1548 1.14397 12.1478 1.11017 12.1347 1.07872C12.1215 1.04726 12.1024 1.01878 12.0784 0.99491C12.0544 0.97104 12.026 0.952257 11.9949 0.939644C11.9637 0.927031 11.9304 0.920839 11.8969 0.921425C9.62488 0.96859 7.4138 1.6799 5.52612 2.97093Z" fill="#FCFCFC"/>
<path d="M26.6602 5.00499C24.2394 5.00499 23.6234 6.74907 23.6234 6.74907V5.45872C23.6234 5.41176 23.6051 5.36672 23.5726 5.33351C23.54 5.30031 23.4959 5.28165 23.4498 5.28165H21.6473C21.6013 5.28165 21.5571 5.30031 21.5246 5.33351C21.492 5.36672 21.4738 5.41176 21.4738 5.45872V15.3079C21.4738 15.3548 21.492 15.3999 21.5246 15.4331C21.5571 15.4663 21.6013 15.4849 21.6473 15.4849H23.4433C23.4894 15.4849 23.5335 15.4663 23.566 15.4331C23.5986 15.3999 23.6169 15.3548 23.6169 15.3079V10.038C23.6169 7.46396 25.6884 7.26255 26.3175 7.26255C26.8917 7.23584 27.4587 7.40224 27.9313 7.73619C27.9518 7.75083 27.9751 7.76088 27.9997 7.76569C28.0243 7.7705 28.0496 7.76996 28.074 7.76411C28.0983 7.75826 28.1212 7.74723 28.1411 7.73174C28.161 7.71625 28.1775 7.69665 28.1894 7.67422L29.0462 6.01204C29.0656 5.976 29.0721 5.93421 29.0646 5.89382C29.0571 5.85344 29.036 5.81699 29.005 5.79071C28.3285 5.27454 27.5049 4.99858 26.6602 5.00499Z" fill="#FCFCFC"/>
<path d="M77.8521 9.89636V15.2946C77.8521 15.318 77.8566 15.3412 77.8655 15.3629C77.8743 15.3845 77.8873 15.4041 77.9036 15.4206C77.92 15.437 77.9394 15.45 77.9607 15.4588C77.982 15.4676 78.0048 15.4719 78.0278 15.4716H79.8216C79.8446 15.4716 79.8674 15.467 79.8886 15.458C79.9098 15.4489 79.929 15.4357 79.9451 15.419C79.9613 15.4023 79.974 15.3825 79.9826 15.3608C79.9912 15.3391 79.9955 15.3158 79.9952 15.2924V9.89636C79.9952 7.66758 79.2924 5.01163 75.9432 5.01163C73.2925 5.01163 72.5832 7.12089 72.5832 7.12089C72.4016 6.48068 72.0153 5.92088 71.4858 5.53061C70.9563 5.14035 70.3141 4.94208 69.6614 4.96736C67.336 4.96736 66.887 6.91063 66.887 6.91063V5.45871C66.887 5.43527 66.8825 5.41206 66.8736 5.39044C66.8647 5.36881 66.8518 5.34919 66.8354 5.33272C66.8191 5.31625 66.7997 5.30325 66.7784 5.29449C66.7571 5.28572 66.7343 5.28135 66.7113 5.28165H64.9174C64.8714 5.28165 64.8273 5.3003 64.7947 5.33351C64.7622 5.36671 64.7439 5.41175 64.7439 5.45871V15.3079C64.7439 15.3548 64.7622 15.3999 64.7947 15.4331C64.8273 15.4663 64.8714 15.4849 64.9174 15.4849H66.7113C66.7343 15.4852 66.7571 15.4809 66.7784 15.4721C66.7997 15.4633 66.8191 15.4503 66.8354 15.4339C66.8518 15.4174 66.8647 15.3978 66.8736 15.3761C66.8825 15.3545 66.887 15.3313 66.887 15.3079V9.89193C66.887 8.05712 68.0302 7.09876 69.1559 7.09876C70.6743 7.09876 71.3555 8.54847 71.3555 9.89636V15.2924C71.3555 15.3158 71.36 15.339 71.3689 15.3606C71.3777 15.3823 71.3907 15.4019 71.407 15.4184C71.4234 15.4348 71.4428 15.4478 71.4641 15.4566C71.4854 15.4654 71.5082 15.4697 71.5312 15.4694H73.325C73.3711 15.4694 73.4152 15.4508 73.4477 15.4176C73.4803 15.3844 73.4986 15.3393 73.4986 15.2924V9.89636C73.4986 8.32492 74.5007 7.14081 75.8282 7.14081C77.069 7.14081 77.8521 8.19655 77.8521 9.89636Z" fill="#FCFCFC"/>
<path d="M34.469 5.00275C33.4258 5.00231 32.406 5.31755 31.5385 5.9086C30.671 6.49965 29.9948 7.33995 29.5954 8.3232C29.196 9.30645 29.0914 10.3885 29.2948 11.4324C29.4982 12.4763 30.0005 13.4352 30.7381 14.1879C31.4757 14.9405 32.4155 15.453 33.4386 15.6605C34.4617 15.868 35.5221 15.7613 36.4858 15.3538C37.4494 14.9463 38.273 14.2563 38.8522 13.3711C39.4315 12.486 39.7404 11.4454 39.74 10.381C39.7383 8.95517 39.1824 7.5882 38.1943 6.57995C37.2061 5.57171 35.8664 5.0045 34.469 5.00275ZM34.469 13.6346C33.8374 13.635 33.2198 13.4443 32.6945 13.0866C32.1691 12.7289 31.7595 12.2202 31.5175 11.6249C31.2755 11.0296 31.2119 10.3745 31.3349 9.74238C31.4579 9.11025 31.7618 8.52953 32.2083 8.07367C32.6547 7.61782 33.2236 7.30731 33.8431 7.18142C34.4625 7.05553 35.1046 7.11992 35.6882 7.36644C36.2718 7.61296 36.7706 8.03054 37.1215 8.56636C37.4725 9.10218 37.6598 9.73216 37.6598 10.3766C37.6604 11.2409 37.3246 12.07 36.7263 12.6818C36.1279 13.2935 35.316 13.6378 34.469 13.639V13.6346Z" fill="#FCFCFC"/>
<path d="M109.886 15.4761H112.259C112.293 15.4766 112.326 15.4671 112.354 15.4488C112.383 15.4304 112.405 15.4041 112.419 15.3729C112.433 15.3417 112.438 15.3071 112.433 15.2731C112.428 15.2392 112.414 15.2075 112.391 15.1818L108.04 10.0491L111.728 5.62255C111.749 5.59666 111.763 5.56492 111.768 5.53115C111.772 5.49738 111.767 5.46301 111.753 5.43217C111.739 5.40132 111.716 5.37531 111.688 5.35726C111.659 5.33921 111.627 5.32988 111.593 5.3304H109.237C109.212 5.33045 109.187 5.33624 109.164 5.34734C109.141 5.35843 109.121 5.37457 109.105 5.39458L105.76 9.40949V1.46156C105.761 1.43813 105.756 1.41486 105.748 1.39313C105.739 1.37139 105.726 1.35161 105.71 1.33493C105.694 1.31825 105.675 1.30501 105.654 1.29597C105.633 1.28694 105.61 1.28229 105.587 1.28229H103.793C103.77 1.28229 103.747 1.28694 103.726 1.29597C103.705 1.30501 103.686 1.31825 103.669 1.33493C103.653 1.35161 103.641 1.37139 103.632 1.39313C103.623 1.41486 103.619 1.43813 103.619 1.46156V15.3079C103.619 15.3314 103.623 15.3546 103.632 15.3764C103.641 15.3981 103.653 15.4179 103.669 15.4346C103.686 15.4512 103.705 15.4645 103.726 15.4735C103.747 15.4825 103.77 15.4872 103.793 15.4872H105.587C105.61 15.4872 105.633 15.4825 105.654 15.4735C105.675 15.4645 105.694 15.4512 105.71 15.4346C105.726 15.4179 105.739 15.3981 105.748 15.3764C105.756 15.3546 105.761 15.3314 105.76 15.3079V10.7021L109.754 15.4142C109.77 15.4335 109.79 15.4491 109.813 15.4598C109.836 15.4705 109.861 15.476 109.886 15.4761Z" fill="#FCFCFC"/>
<path d="M85.4549 15.7505C86.1043 15.7679 86.7476 15.6177 87.3251 15.314C87.9025 15.0103 88.3956 14.5629 88.7585 14.0131V15.3078C88.7585 15.3548 88.7768 15.3998 88.8093 15.433C88.8419 15.4662 88.886 15.4849 88.932 15.4849H90.7281C90.7741 15.4849 90.8183 15.4662 90.8508 15.433C90.8833 15.3998 90.9016 15.3548 90.9016 15.3078V5.45204C90.9016 5.40508 90.8833 5.36004 90.8508 5.32684C90.8183 5.29363 90.7741 5.27498 90.7281 5.27498H88.932C88.886 5.27498 88.8419 5.29363 88.8093 5.32684C88.7768 5.36004 88.7585 5.40508 88.7585 5.45204V10.8126C88.739 12.4726 87.7477 13.7585 86.2032 13.7585C84.6588 13.7585 83.6285 12.632 83.6285 10.8812V5.45204C83.6285 5.4286 83.6239 5.40539 83.6151 5.38377C83.6062 5.36214 83.5932 5.34252 83.5769 5.32605C83.5605 5.30958 83.5411 5.29658 83.5198 5.28781C83.4985 5.27905 83.4757 5.27468 83.4528 5.27498H81.6589C81.6129 5.27498 81.5687 5.29363 81.5362 5.32684C81.5036 5.36004 81.4854 5.40508 81.4854 5.45204V10.9853C81.5157 13.8803 83.058 15.7505 85.4549 15.7505Z" fill="#FCFCFC"/>
<path d="M97.9992 5.00051C97.35 4.9831 96.707 5.13296 96.1296 5.43625C95.5521 5.73955 95.059 6.18648 94.6956 6.73573V5.45423C94.6959 5.43079 94.6916 5.40753 94.683 5.38579C94.6745 5.36405 94.6617 5.34427 94.6456 5.3276C94.6294 5.31092 94.6102 5.29768 94.589 5.28864C94.5678 5.27961 94.5451 5.27495 94.5221 5.27495H92.726C92.7031 5.27495 92.6803 5.27961 92.6591 5.28864C92.6379 5.29768 92.6187 5.31092 92.6026 5.3276C92.5864 5.34427 92.5737 5.36405 92.5651 5.38579C92.5565 5.40753 92.5522 5.43079 92.5525 5.45423V15.3078C92.5522 15.3312 92.5565 15.3545 92.5651 15.3762C92.5737 15.398 92.5864 15.4178 92.6026 15.4344C92.6187 15.4511 92.6379 15.4644 92.6591 15.4734C92.6803 15.4824 92.7031 15.4871 92.726 15.4871H94.5221C94.5451 15.4871 94.5678 15.4824 94.589 15.4734C94.6102 15.4644 94.6294 15.4511 94.6456 15.4344C94.6617 15.4178 94.6745 15.398 94.683 15.3762C94.6916 15.3545 94.6959 15.3312 94.6956 15.3078V9.93836C94.7151 8.27839 95.7064 6.98362 97.2509 6.98362C98.7953 6.98362 99.8257 8.11018 99.8257 9.8609V15.3078C99.8254 15.3312 99.8296 15.3545 99.8382 15.3762C99.8468 15.398 99.8596 15.4178 99.8757 15.4344C99.8919 15.4511 99.9111 15.4644 99.9323 15.4734C99.9535 15.4824 99.9762 15.4871 99.9992 15.4871H101.793C101.816 15.4871 101.839 15.4824 101.86 15.4734C101.881 15.4644 101.9 15.4511 101.917 15.4344C101.933 15.4178 101.945 15.398 101.954 15.3762C101.963 15.3545 101.967 15.3312 101.967 15.3078V9.77458C101.93 6.87074 100.387 5.00051 97.9992 5.00051Z" fill="#FCFCFC"/>
<path d="M57.7831 15.7616C59.9089 15.7616 60.7852 14.3805 60.7852 14.3805V15.3079C60.7852 15.3549 60.8035 15.3999 60.836 15.4331C60.8686 15.4663 60.9127 15.485 60.9587 15.485H62.7548C62.8008 15.485 62.845 15.4663 62.8775 15.4331C62.9101 15.3999 62.9283 15.3549 62.9283 15.3079V1.46156C62.9286 1.43813 62.9243 1.41486 62.9158 1.39313C62.9072 1.37139 62.8944 1.35161 62.8783 1.33493C62.8621 1.31825 62.8429 1.30501 62.8217 1.29597C62.8005 1.28694 62.7778 1.28229 62.7548 1.28229H60.9587C60.9358 1.28229 60.913 1.28694 60.8918 1.29597C60.8706 1.30501 60.8514 1.31825 60.8353 1.33493C60.8191 1.35161 60.8064 1.37139 60.7978 1.39313C60.7892 1.41486 60.7849 1.43813 60.7852 1.46156V6.38171C60.7852 6.38171 59.9176 5.00283 57.7831 5.00283C57.0909 5.00283 56.4055 5.14195 55.766 5.41223C55.1265 5.68251 54.5454 6.07868 54.0559 6.5781C53.5665 7.07752 53.1782 7.67042 52.9133 8.32294C52.6484 8.97547 52.5121 9.67484 52.5121 10.3811C52.5121 11.0874 52.6484 11.7868 52.9133 12.4393C53.1782 13.0918 53.5665 13.6847 54.0559 14.1842C54.5454 14.6836 55.1265 15.0797 55.766 15.35C56.4055 15.6203 57.0909 15.7594 57.7831 15.7594V15.7616ZM60.9739 10.3811C60.9731 11.0254 60.785 11.6549 60.4336 12.1902C60.0821 12.7254 59.583 13.1423 58.9993 13.3882C58.4157 13.634 57.7737 13.6978 57.1546 13.5714C56.5354 13.445 55.9669 13.1341 55.5209 12.6781C55.0748 12.2221 54.7713 11.6413 54.6487 11.0093C54.5261 10.3773 54.5899 9.7224 54.8321 9.12738C55.0742 8.53236 55.4838 8.02395 56.009 7.66642C56.5343 7.30889 57.1517 7.1183 57.7831 7.11874C58.2026 7.11903 58.6179 7.20366 59.0054 7.36779C59.3928 7.53193 59.7447 7.77235 60.041 8.07532C60.3374 8.37829 60.5723 8.73787 60.7323 9.13351C60.8924 9.52915 60.9745 9.9531 60.9739 10.3811Z" fill="#FCFCFC"/>
<path d="M46.1067 15.7616C48.2325 15.7616 49.111 14.3805 49.111 14.3805V15.3078C49.111 15.3548 49.1293 15.3998 49.1618 15.433C49.1944 15.4662 49.2385 15.4849 49.2845 15.4849H51.0784C51.1244 15.4849 51.1686 15.4662 51.2011 15.433C51.2337 15.3998 51.2519 15.3548 51.2519 15.3078V5.45868C51.2519 5.41172 51.2337 5.36669 51.2011 5.33348C51.1686 5.30028 51.1244 5.28162 51.0784 5.28162H49.2845C49.2385 5.28162 49.1944 5.30028 49.1618 5.33348C49.1293 5.36669 49.111 5.41172 49.111 5.45868V6.38163C49.111 6.38163 48.2325 5.00275 46.1067 5.00275C44.7088 5.00275 43.368 5.56939 42.3795 6.57801C41.391 7.58664 40.8357 8.95463 40.8357 10.381C40.8357 11.8075 41.391 13.1755 42.3795 14.1841C43.368 15.1927 44.7088 15.7593 46.1067 15.7593V15.7616ZM49.2997 10.381C49.2988 11.0252 49.1109 11.6547 48.7595 12.1899C48.4081 12.7251 47.9091 13.1419 47.3256 13.3879C46.7421 13.6338 46.1002 13.6976 45.4811 13.5714C44.8621 13.4452 44.2935 13.1346 43.8474 12.6788C43.4013 12.223 43.0976 11.6425 42.9748 11.0106C42.8519 10.3787 42.9154 9.72389 43.1572 9.12883C43.399 8.53377 43.8083 8.02521 44.3332 7.66741C44.8582 7.30962 45.4754 7.11865 46.1067 7.11865C46.5264 7.11865 46.942 7.20307 47.3296 7.36707C47.7173 7.53108 48.0695 7.77145 48.366 8.07445C48.6626 8.37745 48.8977 8.73713 49.0579 9.13292C49.2181 9.5287 49.3003 9.95283 49.2997 10.381Z" fill="#FCFCFC"/>
</g>
<defs>
<clipPath id="clip0_16_194">
<rect width="112.236" height="16.3252" fill="white" transform="translate(0.196655 0.921448)"/>
</clipPath>
</defs>
</svg>
