<svg width="77" height="27" viewBox="0 0 77 27" fill="none" xmlns="http://www.w3.org/2000/svg">
<g clip-path="url(#clip0_16_209)">
<path d="M12.6325 13.8274C11.0598 12.2362 9.18242 10.9606 7.0523 10.0374C4.91428 9.1102 2.59478 8.64001 0.158265 8.64001H0.0180664V26.0504H17.7498C17.7023 23.731 17.245 21.5191 16.3783 19.4736C15.4653 17.3178 14.2047 15.4182 12.6325 13.8274Z" fill="url(#paint0_linear_16_209)"/>
<path d="M29.5061 22.0212H24.39V25.6888C24.39 25.9062 24.2159 26.0829 24.0005 26.0829H23.6902C23.4753 26.0829 23.3007 25.9068 23.3007 25.6888V17.6231C23.3007 17.4058 23.4748 17.229 23.6902 17.229H24.0005C24.2153 17.229 24.39 17.4052 24.39 17.6231V21.0385H29.5061V17.6231C29.5061 17.4058 29.6803 17.229 29.8956 17.229H30.206C30.4208 17.229 30.5955 17.4052 30.5955 17.6231V25.6888C30.5955 25.9062 30.4214 26.0829 30.206 26.0829H29.8956C29.6808 26.0829 29.5061 25.9068 29.5061 25.6888V22.0212Z" fill="white"/>
<path d="M34.4335 17.2296H39.4191C39.6339 17.2296 39.8086 17.4058 39.8086 17.6237V17.8182C39.8086 18.0356 39.6344 18.2123 39.4191 18.2123H35.1645V21.066H39.3275C39.5423 21.066 39.717 21.2422 39.717 21.4601V21.6546C39.717 21.8719 39.5429 22.0487 39.3275 22.0487H35.1645V25.1014H39.4191C39.6339 25.1014 39.8086 25.2776 39.8086 25.4955V25.69C39.8086 25.9074 39.6344 26.0841 39.4191 26.0841H34.4335C34.2357 26.0841 34.0757 25.9217 34.0757 25.722V17.5934C34.0757 17.3932 34.2362 17.2313 34.4335 17.2313V17.2296Z" fill="white"/>
<path d="M48.8039 24.1188H44.3701L43.694 25.8353C43.6352 25.9852 43.4916 26.0836 43.3321 26.0836H42.9653C42.6894 26.0836 42.4293 25.9852 42.604 25.543L45.8167 17.4527C45.8699 17.3183 45.9987 17.2302 46.1418 17.2302H47.0197C47.1627 17.2302 47.2911 17.3183 47.3448 17.4522L50.5693 25.5425C50.7406 25.9852 50.484 26.0836 50.2081 26.0836H49.8418C49.6824 26.0836 49.5393 25.9852 49.48 25.8353L48.8039 24.1188ZM44.685 23.1367H48.476L46.5867 18.2123L44.6844 23.1367H44.685Z" fill="white"/>
<path d="M54.0839 17.2296H54.3942C54.6091 17.2296 54.7837 17.4058 54.7837 17.6237V25.1009H58.4611C58.676 25.1009 58.8506 25.277 58.8506 25.495V25.6894C58.8506 25.9068 58.6765 26.0835 58.4611 26.0835H53.9985C53.8312 26.0835 53.6949 25.9463 53.6949 25.7764V17.6237C53.6949 17.4064 53.8691 17.2296 54.0845 17.2296H54.0839Z" fill="white"/>
<path d="M62.6054 18.2117H60.2265C60.0117 18.2117 59.837 18.0355 59.837 17.8176V17.6231C59.837 17.4058 60.0112 17.229 60.2265 17.229H66.0855C66.3003 17.229 66.475 17.4052 66.475 17.6231V17.8176C66.475 18.0349 66.3009 18.2117 66.0855 18.2117H63.6936V25.6888C63.6936 25.9062 63.5195 26.0829 63.3041 26.0829H62.9938C62.7789 26.0829 62.6043 25.9068 62.6043 25.6888V18.2117H62.6054Z" fill="white"/>
<path d="M75.5795 22.0212H70.4634V25.6888C70.4634 25.9062 70.2893 26.0829 70.0739 26.0829H69.7635C69.5487 26.0829 69.374 25.9068 69.374 25.6888V17.6231C69.374 17.4058 69.5481 17.229 69.7635 17.229H70.0739C70.2887 17.229 70.4634 17.4052 70.4634 17.6231V21.0385H75.5795V17.6231C75.5795 17.4058 75.7536 17.229 75.969 17.229H76.2794C76.4942 17.229 76.6689 17.4052 76.6689 17.6231V25.6888C76.6689 25.9062 76.4947 26.0829 76.2794 26.0829H75.969C75.7542 26.0829 75.5795 25.9068 75.5795 25.6888V22.0212Z" fill="white"/>
<path d="M0.0180901 7.69502H0.158289C2.722 7.69502 5.1653 8.19095 7.42035 9.16849C9.66013 10.1397 11.6359 11.4822 13.2934 13.1593C13.8096 13.6815 14.2901 14.2387 14.7406 14.8221C14.982 14.6276 15.2161 14.424 15.4332 14.2015C16.1562 13.459 16.7362 12.5742 17.1562 11.572C17.5774 10.5664 17.7911 9.48137 17.7911 8.3471C17.7911 7.21283 17.5774 6.13176 17.1557 5.13592C16.7351 4.1435 16.1551 3.26892 15.4315 2.53677C14.7073 1.80404 13.8435 1.21717 12.8627 0.792177C11.8784 0.365468 10.8106 0.148682 9.68897 0.148682H0V7.69502H0.0180901Z" fill="white"/>
<path d="M34.4725 12.6474C34.4725 12.9494 34.4194 13.1376 34.1978 13.3956C33.9988 13.6272 33.7071 13.7388 33.4505 13.7388H32.1056C31.7873 13.7388 31.5001 13.7119 31.2429 13.526C31.1146 13.4333 31.0072 13.3264 30.9218 13.2057C30.7997 13.0335 30.7375 12.8253 30.7251 12.6137C30.7058 12.2956 30.6154 11.5292 30.2157 10.6048C29.8302 9.71306 28.6786 9.00436 28.0319 9.00436H27.0409C26.9499 9.00436 26.8758 9.07929 26.8758 9.17138V12.6806C26.8758 12.9654 26.7718 13.2131 26.5638 13.423C26.3557 13.6335 26.1109 13.7388 25.83 13.7388H24.3438C24.0622 13.7388 23.8175 13.6335 23.6094 13.423C23.4014 13.2125 23.2974 12.9654 23.2974 12.6806V1.33675C23.2974 1.03989 23.3918 0.776771 23.5817 0.5474C23.7711 0.318602 24.0131 0.191619 24.3065 0.167023C25.5049 0.0554836 27.0895 0 28.3988 0C32.0688 0 33.9038 1.39224 33.9038 4.17729C33.9038 4.95692 33.6681 5.68107 33.1972 6.34973C32.7263 7.01839 32.1112 7.49486 31.3531 7.77915C31.3407 7.77915 31.335 7.78544 31.335 7.79745C31.335 7.82262 31.3413 7.83463 31.3531 7.83463C31.72 8.04512 32.5753 8.19613 33.5206 9.65758C34.4658 11.1202 34.4731 12.6474 34.4731 12.6474H34.4725ZM28.2151 6.31255C28.8386 6.31255 29.331 6.15468 29.6922 5.83894C30.0529 5.52319 30.2332 5.09362 30.2332 4.54851C30.2332 3.37249 29.5605 2.78448 28.2145 2.78448C27.9087 2.78448 27.297 2.80335 27.0398 2.83996C26.9295 2.86513 26.8747 2.93262 26.8747 3.04416V6.14495C26.8747 6.25649 26.9295 6.31198 27.0398 6.31198H28.2145L28.2151 6.31255Z" fill="white"/>
<path d="M61.411 0.185913C61.6926 0.185913 61.9368 0.29116 62.1454 0.501655C62.3528 0.71215 62.4574 0.959824 62.4574 1.24411V2.19076C62.4574 2.47561 62.3534 2.72329 62.1454 2.93378C61.9373 3.14428 61.6926 3.24952 61.411 3.24952H58.5788C58.4686 3.24952 58.4137 3.30501 58.4137 3.41655V12.6806C58.4137 12.9655 58.3125 13.2131 58.1113 13.423C57.9095 13.6335 57.6675 13.7388 57.3865 13.7388H55.6985C55.417 13.7388 55.1756 13.6335 54.9738 13.423C54.7719 13.2126 54.6713 12.9655 54.6713 12.6806V3.41598C54.6713 3.30444 54.6159 3.24895 54.5062 3.24895H51.674C51.3925 3.24895 51.1477 3.1437 50.9402 2.93321C50.7322 2.72272 50.6282 2.47561 50.6282 2.19019V1.24411C50.6282 0.959252 50.7316 0.71215 50.9402 0.501655C51.1483 0.29116 51.3925 0.185913 51.674 0.185913H61.4116H61.411Z" fill="white"/>
<path d="M75.6224 0.185913C75.904 0.185913 76.1482 0.29116 76.3562 0.501655C76.5643 0.71215 76.6683 0.959824 76.6683 1.24411V12.6806C76.6683 12.9655 76.5643 13.2131 76.3562 13.423C76.1482 13.6335 75.9034 13.7388 75.6224 13.7388H74.0446C73.7631 13.7388 73.5183 13.6335 73.3109 13.423C73.1028 13.2126 72.9988 12.9655 72.9988 12.6806V8.33629C72.9988 8.22475 72.9496 8.16926 72.8518 8.16926H68.6085C68.4983 8.16926 68.4435 8.22475 68.4435 8.33629V12.6806C68.4435 12.9655 68.3395 13.2131 68.1314 13.423C67.9234 13.6335 67.6786 13.7388 67.3976 13.7388H65.8198C65.5383 13.7388 65.2935 13.6335 65.0855 13.423C64.8775 13.2126 64.7734 12.9655 64.7734 12.6806V1.24411C64.7734 0.959252 64.8775 0.71215 65.0855 0.501655C65.2935 0.29116 65.5377 0.185913 65.8198 0.185913H67.3976C67.6792 0.185913 67.9234 0.29116 68.1314 0.501655C68.3395 0.71215 68.4435 0.959824 68.4435 1.24411V5.21719C68.4435 5.32873 68.4983 5.38421 68.6085 5.38421H72.8518C72.9496 5.38421 72.9988 5.32873 72.9988 5.21719V1.24411C72.9988 0.959252 73.1028 0.71215 73.3109 0.501655C73.5189 0.29116 73.7631 0.185913 74.0446 0.185913H75.6224Z" fill="white"/>
<path d="M47.5487 0.15271C47.8297 0.15271 48.0739 0.257957 48.282 0.46788C48.4894 0.678374 48.5934 0.925477 48.5934 1.20976V8.12634C48.5934 10.332 48.1412 11.4897 47.2373 12.3545C46.3327 13.22 44.6029 13.8755 42.6966 13.8755C40.7904 13.8755 39.0599 13.22 38.156 12.3545C37.2515 11.4897 36.7998 10.332 36.7998 8.12634V1.20976C36.7998 0.925477 36.9033 0.678374 37.1113 0.46788C37.3188 0.257957 37.563 0.15271 37.8445 0.15271H39.4574C39.7383 0.15271 39.9825 0.257957 40.1906 0.46788C40.398 0.678374 40.5021 0.925477 40.5021 1.20976V8.23787C40.5021 8.95516 40.8554 10.853 42.7334 10.853C44.6114 10.853 44.9652 8.95516 44.9652 8.23787V1.20976C44.9652 0.925477 45.0687 0.678374 45.2767 0.46788C45.4842 0.257957 45.7284 0.15271 46.0099 0.15271H47.5493H47.5487Z" fill="white"/>
</g>
<defs>
<linearGradient id="paint0_linear_16_209" x1="1.92488" y1="27.4015" x2="12.0578" y2="13.099" gradientUnits="userSpaceOnUse">
<stop offset="0.52" stop-color="white"/>
<stop offset="0.62" stop-color="white" stop-opacity="0.98"/>
<stop offset="0.72" stop-color="white" stop-opacity="0.94"/>
<stop offset="0.83" stop-color="white" stop-opacity="0.86"/>
<stop offset="0.93" stop-color="white" stop-opacity="0.74"/>
<stop offset="1" stop-color="white" stop-opacity="0.65"/>
</linearGradient>
<clipPath id="clip0_16_209">
<rect width="76.6683" height="26.083" fill="white"/>
</clipPath>
</defs>
</svg>
