<svg xmlns="http://www.w3.org/2000/svg" viewBox="0 0 400 400"><defs><style>.cls-1{fill:#3c3c42;}.cls-1,.cls-4{stroke:#3c3c42;}.cls-1,.cls-3,.cls-4{stroke-linecap:round;stroke-linejoin:round;}.cls-2,.cls-3{fill:#fff;}.cls-3{stroke:#fff;stroke-width:1.5px;}.cls-4{fill:none;}</style></defs><title>151-170</title><g id="_158" data-name="158"><polygon class="cls-1" points="273.07 236.57 20.4 236.57 126.93 163.43 379.6 163.43 273.07 236.57"/><circle class="cls-2" cx="227.06" cy="210.16" r="8.77"/><circle class="cls-2" cx="188.66" cy="181.71" r="5.63"/><circle class="cls-2" cx="224.88" cy="177.2" r="2.18"/><circle class="cls-2" cx="319.73" cy="173.34" r="2.18"/><circle class="cls-2" cx="196.47" cy="196.04" r="2.18"/><circle class="cls-2" cx="274.19" cy="172.65" r="2.18"/><circle class="cls-2" cx="294.97" cy="189.96" r="2.18"/><circle class="cls-2" cx="279.8" cy="219.03" r="2.18"/><circle class="cls-2" cx="286.22" cy="181" r="13.09"/><circle class="cls-2" cx="252.29" cy="197.43" r="5.28"/><circle class="cls-2" cx="249.69" cy="227.69" r="3.41"/><circle class="cls-2" cx="167.48" cy="172.1" r="3.41"/><circle class="cls-2" cx="315.9" cy="197.43" r="3.41"/><circle class="cls-2" cx="273.13" cy="216.11" r="2.18"/><circle class="cls-2" cx="288.4" cy="205.76" r="2.18"/><circle class="cls-2" cx="212.43" cy="194.09" r="5.28"/><polygon class="cls-3" points="126.93 183.74 158.58 183.74 81.64 236.57 49.99 236.57 126.93 183.74"/><polygon class="cls-3" points="158.66 204.06 190.31 204.06 142.96 236.57 111.31 236.57 158.66 204.06"/><polygon class="cls-3" points="190.31 224.37 221.96 224.37 204.27 236.57 172.62 236.57 190.31 224.37"/><polygon class="cls-4" points="273.07 236.57 20.4 236.57 126.93 163.43 379.6 163.43 273.07 236.57"/><line class="cls-3" x1="126.93" y1="183.74" x2="126.93" y2="163.43"/><line class="cls-3" x1="158.58" y1="183.74" x2="158.58" y2="204.06"/><line class="cls-3" x1="190.31" y1="204.06" x2="190.31" y2="224.37"/><line class="cls-3" x1="221.96" y1="224.37" x2="221.96" y2="236.57"/></g></svg>