<svg xmlns="http://www.w3.org/2000/svg" viewBox="0 0 400 400"><defs><style>.cls-1{fill:none;stroke:#fff;stroke-linecap:round;stroke-miterlimit:10;stroke-width:1.5px;}</style></defs><title>01-50</title><g id="Capa_37" data-name="Capa 37"><path class="cls-1" d="M20.4,190c35.92,0,35.92,20,71.84,20s35.91-20,71.83-20,35.92,20,71.84,20,35.92-20,71.85-20,35.92,20,71.84,20"/><path class="cls-1" d="M23.93,236.82c34.7-9.29,39.87,10,74.57.73s29.51-28.61,64.21-37.91,39.87,10,74.57.72,29.52-28.61,64.22-37.91,39.87,10,74.57.73"/><path class="cls-1" d="M39.46,281.14c31.11-18,41.11-.64,72.21-18.6s21.11-35.28,52.22-53.24,41.1-.64,72.21-18.6,21.11-35.28,52.22-53.24,41.11-.64,72.22-18.6"/><path class="cls-1" d="M65.93,319.92c25.4-25.39,39.54-11.25,64.94-36.65s11.26-39.54,36.65-64.94,39.54-11.25,64.94-36.65,11.26-39.54,36.66-64.94,39.54-11.26,64.95-36.66"/><path class="cls-1" d="M101.54,350.54c18-31.11,35.28-21.11,53.24-52.21s.64-41.11,18.6-72.22,35.28-21.1,53.24-52.21.64-41.11,18.6-72.22,35.28-21.11,53.24-52.22"/><path class="cls-1" d="M143.86,370.89c9.29-34.69,28.61-29.52,37.91-64.21s-10-39.87-.73-74.57S209.66,202.6,219,167.9s-10-39.87-.72-74.57,28.62-29.52,37.91-64.22"/><path class="cls-1" d="M190,379.6c0-35.92,20-35.92,20-71.84s-20-35.91-20-71.83,20-35.92,20-71.84-20-35.92-20-71.85,20-35.92,20-71.84"/><path class="cls-1" d="M236.82,376.07c-9.29-34.7,10-39.87.73-74.57S208.94,272,199.64,237.29s10-39.87.72-74.57S171.75,133.2,162.45,98.5s10-39.87.73-74.57"/><path class="cls-1" d="M281.14,360.54c-18-31.11-.64-41.11-18.6-72.21s-35.28-21.11-53.24-52.22-.64-41.1-18.6-72.21-35.28-21.11-53.24-52.22-.64-41.11-18.6-72.22"/><path class="cls-1" d="M319.92,334.07c-25.39-25.4-11.25-39.54-36.65-64.94s-39.54-11.26-64.94-36.65-11.25-39.54-36.65-64.94-39.54-11.26-64.94-36.66S105.48,91.34,80.08,65.93"/><path class="cls-1" d="M350.54,298.46c-31.11-18-21.11-35.28-52.21-53.24s-41.11-.64-72.22-18.6S205,191.34,173.9,173.38s-41.11-.64-72.22-18.6S80.57,119.5,49.46,101.54"/><path class="cls-1" d="M370.89,256.14c-34.69-9.29-29.52-28.61-64.21-37.91s-39.87,10-74.57.73-29.51-28.62-64.21-37.91-39.87,10-74.57.72-29.52-28.62-64.22-37.91"/></g></svg>