<svg width="51" height="58" viewBox="0 0 51 58" fill="none" xmlns="http://www.w3.org/2000/svg">
<path d="M31.3 51.5H28.6V48.1H31.3C32.4 48.1 33 48.6 33 49.8C33.1 50.9 32.5 51.5 31.3 51.5ZM33.6 53.2C35.1 52.6 35.9 51.5 35.9 49.8V49.5C35.8 47.2 34 46.1 31.8 46.1H25.9V57.8H28.7V53.6H30.7L32.8 57.8H35.9L33.6 53.2ZM11.2 46H8L6.1 51.1L3.9 47.3C3.5 46.6 2.5 46 1.6 46H0L4.8 54.4L3.6 57.7H5.2C6 57.7 6.9 57.1 7.2 56.3L11.2 46ZM20.2 54.6L21.4 57.7H24.4L20.5 47.4C20.2 46.6 19.3 46 18.5 46H15.1L10.7 57.7H12.2C13 57.7 13.9 57.1 14.2 56.3L14.8 54.6H20.2ZM19.5 52.6H15.5L17.2 48.2C17.4 47.7 17.7 47.7 17.8 48.2L19.5 52.6ZM41 54.6H46.4L47 56.3C47.3 57.1 48.2 57.7 49 57.7H50.5L46.1 46H42.7C41.9 46 41 46.6 40.7 47.4L36.8 57.7H39.8L41 54.6ZM43.4 48.2C43.6 47.7 43.9 47.7 44 48.2L45.7 52.6H41.7L43.4 48.2Z" fill="white"/>
<path fill-rule="evenodd" clip-rule="evenodd" d="M28.5705 27.2C26.8705 27.2 25.5705 28.5 25.5705 30.2C25.5705 31.9 26.8705 33.2 28.5705 33.2C30.2705 33.2 31.5705 31.9 31.5705 30.2C31.5705 28.5 30.1705 27.2 28.5705 27.2ZM20.9705 27.2C19.2705 27.2 17.9705 28.5 17.9705 30.2C17.9705 31.9 19.2705 33.2 20.9705 33.2C22.6705 33.2 23.9705 31.9 23.9705 30.2C23.9705 28.5 22.5705 27.2 20.9705 27.2ZM36.1705 27.2C34.4705 27.2 33.1705 28.5 33.1705 30.2C33.1705 31.9 34.4705 33.2 36.1705 33.2C37.8705 33.2 39.1705 31.9 39.1705 30.2C39.1705 28.5 37.8705 27.2 36.1705 27.2ZM13.2705 27.2C11.5705 27.2 10.2705 28.5 10.2705 30.2C10.2705 31.9 11.5705 33.2 13.2705 33.2C14.9705 33.2 16.2705 31.9 16.2705 30.2C16.2705 28.5 14.9705 27.2 13.2705 27.2ZM48.6705 31.8C47.8705 30.2 46.4705 27.5 46.2705 26.6C46.2705 26.6 45.4705 24.5 47.6705 24.2C48.5705 24.1 49.2705 23.4 49.2705 22.5V21.5C49.2705 21.4 49.1705 21.2 48.9705 21.2H45.3705C45.2705 21.2 42.7705 21.5 42.7705 24.5C42.6705 29.7 42.7705 30.4 41.3705 30.6C41.2705 30.6 41.1705 30.5 41.1705 30.4V30.2C41.1705 27.4 38.9705 25.2 36.1705 25.2C34.7705 25.2 33.4705 25.8 32.5705 26.7C32.5705 26.8 32.4705 26.8 32.3705 26.8C32.2705 26.8 32.1705 26.7 32.1705 26.7C31.2705 25.8 29.9705 25.2 28.5705 25.2C27.1705 25.2 25.8705 25.8 24.9705 26.7C24.9705 26.8 24.8705 26.8 24.7705 26.8C24.6705 26.8 24.5705 26.7 24.5705 26.7C23.6705 25.8 22.3705 25.2 20.9705 25.2C19.5705 25.2 18.2705 25.8 17.3705 26.7C17.3705 26.8 17.2705 26.8 17.1705 26.8C17.0705 26.8 16.9705 26.7 16.9705 26.7C16.0705 25.8 14.7705 25.2 13.3705 25.2C10.5705 25.2 8.37054 27.4 8.37054 30.2V30.4C8.37054 30.5 8.27054 30.6 8.07054 30.6C6.67054 30.4 6.77054 29.7 6.67054 24.5C6.67054 21.5 4.17054 21.2 4.07054 21.2H0.470541C0.370541 21.2 0.170541 21.3 0.170541 21.5V22.5C0.170541 23.4 0.870542 24.1 1.77054 24.2C3.97054 24.5 3.17054 26.6 3.17054 26.6C2.87054 27.5 1.57054 30.2 0.770542 31.8C0.270542 32.8 -0.729458 35.4 0.870542 37.9C1.77054 39.3 2.87054 40.7 6.77054 40.6H42.7705C46.6705 40.7 47.7705 39.3 48.6705 37.9C50.1705 35.4 49.1705 32.9 48.6705 31.8ZM23.5705 22.7C23.6705 22.8 24.0705 22.8 24.3705 22.8H29.4705C26.8705 20.5 25.2705 14.8 25.2705 11.4C25.2705 7.9 26.8705 2.2 29.4705 0H24.3705C24.0705 0 23.6705 3.7998e-07 23.5705 0.1C23.5705 0.1 18.9705 4.6 18.9705 11.4C19.0705 18.3 23.5705 22.7 23.5705 22.7ZM34.6705 22.7C34.7705 22.8 35.1705 22.8 35.4705 22.8H40.5705C37.9705 20.5 36.3705 14.8 36.3705 11.4C36.3705 7.9 37.9705 2.2 40.5705 0H35.4705C35.1705 0 34.7705 3.7998e-07 34.6705 0.1C34.6705 0.1 30.0705 4.5 30.0705 11.4C30.0705 18.3 34.6705 22.7 34.6705 22.7ZM7.97054 11.4C7.97054 4.5 12.5705 0.1 12.5705 0.1C12.6705 3.7998e-07 13.0705 0 13.3705 0H18.4705C15.8705 2.3 14.2705 8 14.2705 11.4C14.2705 14.9 15.8705 20.5 18.4705 22.8H13.3705C13.0705 22.8 12.6705 22.8 12.5705 22.7C12.5705 22.7 7.97054 18.3 7.97054 11.4Z" fill="white"/>
</svg>
